<svg width="126" height="61" viewBox="0 0 126 61" fill="none" xmlns="http://www.w3.org/2000/svg">
<path d="M29.9983 30.6391L50.4745 18.8238C51.6193 18.1617 52.6225 17.2805 53.4268 16.2307C54.2311 15.1808 54.8207 13.9828 55.162 12.7051C55.5034 11.4274 55.5897 10.0949 55.416 8.78383C55.2424 7.47275 54.8122 6.20871 54.1501 5.06388C53.4879 3.91905 52.6067 2.91585 51.5569 2.11156C50.507 1.30726 49.309 0.717632 48.0313 0.376325C45.4508 -0.312975 42.7022 0.0510518 40.3901 1.38832L5.03125 21.7977L29.9983 30.6391Z" fill="#EA4335"/>
<path d="M45.4164 60.9986C47.633 61.0009 49.7885 60.2719 51.5487 58.9245C53.3088 57.5772 54.5753 55.6868 55.1517 53.5464C55.7281 51.406 55.5822 49.1352 54.7367 47.0862C53.8912 45.0371 52.3933 43.3243 50.4753 42.2131L15.1031 21.7971C12.791 20.4616 10.0431 20.0993 7.46384 20.7898C4.8846 21.4804 2.68533 23.1672 1.34982 25.4793C0.0143238 27.7914 -0.348004 30.5393 0.34255 33.1186C1.0331 35.6978 2.71997 37.8971 5.03206 39.2326L40.3842 59.642C41.9127 60.5299 43.6487 60.998 45.4164 60.9986Z" fill="#4285F4"/>
<path d="M80.5828 60.9999C82.3464 61.0042 84.0799 60.5431 85.6083 59.6633L120.96 39.2539L96.3142 30.2188L75.5373 42.2144C73.6169 43.3235 72.1163 45.0354 71.2683 47.0845C70.4203 49.1336 70.2724 51.4053 70.8474 53.547C71.4225 55.6888 72.6884 57.5809 74.4487 58.9297C76.2089 60.2784 78.3652 61.0085 80.5828 61.0065V60.9999Z" fill="#FBBC04"/>
<path d="M115.914 40.5817C118.132 40.5866 120.29 39.8585 122.051 38.5106C123.813 37.1627 125.08 35.2704 125.656 33.1281C126.231 30.9857 126.083 28.7132 125.233 26.664C124.384 24.6147 122.881 22.9035 120.959 21.7963L85.607 1.38693C83.2949 0.0514322 80.547 -0.310894 77.9677 0.37966C75.3885 1.07021 73.1892 2.75708 71.8537 5.06917C70.5182 7.38126 70.1559 10.1292 70.8465 12.7084C71.537 15.2877 73.2239 17.4869 75.536 18.8224L110.888 39.2318C112.415 40.1163 114.149 40.582 115.914 40.5817Z" fill="#0F9D58"/>
</svg>
