<svg width="386" height="955" viewBox="0 0 386 955" fill="none" xmlns="http://www.w3.org/2000/svg">
<path d="M256.981 60.2451C256.981 26.9727 228.318 0 192.961 0C157.604 0 128.941 26.9727 128.941 60.2451C128.941 93.5176 157.604 120.49 192.961 120.49C228.318 120.49 256.981 93.5176 256.981 60.2451Z" fill="#EA4335"/>
<path d="M385.921 0H256.98V120.49H385.921V0Z" fill="#4285F4"/>
<path d="M128.941 120.49H0C0 104.667 3.33514 88.9991 9.81503 74.3806C16.2949 59.7621 25.7927 46.4793 37.7659 35.2908C49.7392 24.1022 63.9535 15.227 79.5973 9.17178C95.2411 3.11658 112.008 0 128.941 0V120.49Z" fill="#0F9D58"/>
<path d="M128.941 240.138C112.008 240.138 95.2411 237.043 79.5973 231.03C63.9535 225.017 49.7392 216.204 37.7659 205.094C25.7927 193.984 16.2949 180.794 9.81503 166.277C3.33514 151.761 0 136.203 0 120.49H128.941V240.138Z" fill="#EA4335"/>
<path d="M128.941 187.897C109.57 187.897 90.9932 180.796 77.2962 168.154C63.5993 155.513 55.9043 138.368 55.9043 120.49H128.941V187.897Z" fill="#FBBC04"/>
<path d="M256.981 120.49H128.941V240.138H256.981V120.49Z" fill="#4285F4"/>
<path d="M220.913 154.194H165.009V204.75H220.913V154.194Z" fill="#0F9D58"/>
<path d="M385.921 120.49H256.98V240.138H385.921V120.49Z" fill="#0F9D58"/>
<path d="M385.921 120.49V240.138H256.98C256.98 224.421 260.316 208.857 266.797 194.337C273.277 179.817 282.776 166.625 294.75 155.514C306.724 144.403 320.939 135.591 336.583 129.581C352.226 123.572 368.992 120.483 385.921 120.49Z" fill="#EA4335"/>
<path d="M256.981 240.138H128.941V358.943H256.981V240.138Z" fill="#FBBC04"/>
<path d="M385.921 240.138H256.98V358.943H385.921V240.138Z" fill="#6D6D70"/>
<path d="M128.941 299.54C128.941 266.733 100.077 240.138 64.4705 240.138C28.8644 240.138 0 266.733 0 299.54C0 332.347 28.8644 358.943 64.4705 358.943C100.077 358.943 128.941 332.347 128.941 299.54Z" fill="#4285F4"/>
<path d="M64.4777 326.081C60.629 326.083 56.8177 325.398 53.2614 324.064C49.7052 322.731 46.4736 320.776 43.7515 318.31C41.0293 315.845 38.8699 312.917 37.3966 309.695C35.9233 306.474 35.165 303.02 35.165 299.532C35.165 296.046 35.9234 292.593 37.3969 289.372C38.8704 286.15 41.03 283.224 43.7524 280.76C46.4747 278.295 49.7064 276.341 53.2626 275.01C56.8188 273.678 60.6298 272.994 64.4777 272.998C68.3243 272.996 72.1336 273.681 75.688 275.014C79.2423 276.346 82.4722 278.301 85.1928 280.765C87.9135 283.229 90.0716 286.155 91.5442 289.375C93.0167 292.595 93.7746 296.047 93.7746 299.532C93.7746 306.574 90.688 313.326 85.1938 318.305C79.6996 323.284 72.2477 326.081 64.4777 326.081Z" fill="#EA4335"/>
<path d="M256.98 240.138H385.921V360.628C351.741 360.628 318.96 347.939 294.79 325.354C270.621 302.769 257.042 272.136 257.042 240.196L256.98 240.138Z" fill="#4285F4"/>
<path d="M385.921 240.138H321.901C321.907 232.275 323.568 224.49 326.789 217.228C330.01 209.966 334.727 203.369 340.672 197.813C346.617 192.258 353.673 187.853 361.437 184.851C369.201 181.848 377.521 180.307 385.921 180.314V240.138Z" fill="#6D6D70"/>
<path d="M256.981 775.106C256.981 741.834 228.318 714.861 192.961 714.861C157.604 714.861 128.941 741.834 128.941 775.106C128.941 808.379 157.604 835.352 192.961 835.352C228.318 835.352 256.981 808.379 256.981 775.106Z" fill="#EA4335"/>
<path d="M192.96 801.648C185.308 801.648 177.969 798.808 172.558 793.751C167.146 788.695 164.106 781.836 164.106 774.685C164.106 767.535 167.146 760.676 172.558 755.62C177.969 750.563 185.308 747.723 192.96 747.723C200.613 747.723 207.952 750.563 213.363 755.62C218.774 760.676 221.814 767.535 221.814 774.685C221.814 781.836 218.774 788.695 213.363 793.751C207.952 798.808 200.613 801.648 192.96 801.648Z" fill="#0F9D58"/>
<path d="M385.921 714.861H256.98V835.352H385.921V714.861Z" fill="#0F9D58"/>
<path d="M128.941 835.352H0C0 819.529 3.33514 803.86 9.81503 789.242C16.2949 774.623 25.7927 761.341 37.7659 750.152C49.7392 738.964 63.9535 730.088 79.5973 724.033C95.2411 717.978 112.008 714.861 128.941 714.861V835.352Z" fill="#0F9D58"/>
<path d="M128.941 955C112.008 955 95.2411 951.905 79.5973 945.892C63.9535 939.88 49.7392 931.066 37.7659 919.956C25.7927 908.846 16.2949 895.656 9.81503 881.14C3.33514 866.623 0 851.065 0 835.353H128.941V955Z" fill="#4285F4"/>
<path d="M128.941 902.76C109.57 902.76 90.9932 895.658 77.2962 883.017C63.5993 870.375 55.9043 853.23 55.9043 835.353H128.941V902.76Z" fill="#EA4335"/>
<path d="M256.981 835.353H128.941V955H256.981V835.353Z" fill="#FBBC04"/>
<path d="M220.913 869.056H165.009V919.611H220.913V869.056Z" fill="#0F9D58"/>
<path d="M385.921 835.353H256.98V955H385.921V835.353Z" fill="#4285F4"/>
<path d="M385.921 835.353V955H256.98C256.98 939.283 260.316 923.72 266.797 909.2C273.277 894.68 282.776 881.487 294.75 870.376C306.724 859.265 320.939 850.453 336.583 844.444C352.226 838.434 368.992 835.345 385.921 835.353Z" fill="#EA4335"/>
<path d="M385.921 955H321.901C321.907 947.136 323.568 939.351 326.789 932.089C330.01 924.827 334.727 918.23 340.672 912.675C346.617 907.119 353.673 902.715 361.437 899.712C369.201 896.71 377.521 895.168 385.921 895.176V955Z" fill="#6D6D70"/>
<path d="M385.921 299.961C377.515 299.969 369.191 298.427 361.423 295.424C353.655 292.421 346.596 288.015 340.65 282.459C334.705 276.903 329.988 270.305 326.771 263.044C323.554 255.782 321.899 247.998 321.901 240.138H385.859L385.921 299.961Z" fill="#FBBC04"/>
<path d="M128.941 479.434C94.7437 479.434 61.9471 466.739 37.7659 444.143C13.5848 421.547 0 390.899 0 358.943H128.941V479.434Z" fill="#0F9D58"/>
<path d="M256.981 358.943H128.941V479.434H256.981V358.943Z" fill="#4285F4"/>
<path d="M256.981 479.434H128.941L256.981 358.943V479.434Z" fill="#4285F4"/>
<path d="M256.98 360.628C273.906 360.62 290.668 363.688 306.309 369.654C321.949 375.621 336.162 384.37 348.135 395.402C360.109 406.435 369.608 419.534 376.092 433.952C382.575 448.37 385.915 463.824 385.921 479.433H256.98V360.628Z" fill="#EA4335"/>
<path d="M128.941 599.081C94.7437 599.081 61.9471 611.776 37.7659 634.372C13.5848 656.968 0 687.615 0 719.571H128.941V599.081Z" fill="#EA4335"/>
<path d="M128.941 599.081V719.571H256.981C256.981 703.745 253.669 688.073 247.233 673.452C240.798 658.83 231.366 645.546 219.476 634.356C207.586 623.167 193.471 614.293 177.936 608.24C162.402 602.188 145.754 599.075 128.941 599.081Z" fill="#FBBC04"/>
<path d="M128.941 650.479C109.331 650.479 90.525 657.758 76.6589 670.715C62.7928 683.672 55.0029 701.246 55.0029 719.571H128.941V650.479Z" fill="#0F9D58"/>
<path d="M128.941 650.479V719.571H202.88C202.88 701.246 195.09 683.672 181.223 670.715C167.357 657.758 148.551 650.479 128.941 650.479Z" fill="#6D6D70"/>
<path d="M256.98 599.081C256.98 631.037 270.565 661.684 294.746 684.28C318.927 706.877 351.724 719.571 385.921 719.571C385.921 687.615 372.337 656.968 348.156 634.372C323.974 611.776 291.178 599.081 256.98 599.081Z" fill="#4285F4"/>
<path d="M128.941 479.433C128.941 495.149 132.254 510.711 138.689 525.23C145.124 539.749 154.556 552.941 166.446 564.051C178.336 575.162 192.451 583.975 207.986 589.985C223.52 595.995 240.168 599.086 256.981 599.08C256.981 583.364 253.669 567.802 247.233 553.283C240.798 538.764 231.366 525.572 219.476 514.461C207.586 503.351 193.471 494.538 177.936 488.528C162.402 482.518 145.754 479.427 128.941 479.433Z" fill="#EA4335"/>
<path d="M385.875 479.433C351.686 479.444 318.901 492.055 294.73 514.492C270.559 536.929 256.98 567.355 256.98 599.08C291.178 599.08 323.974 586.475 348.156 564.036C372.337 541.598 385.921 511.165 385.921 479.433H385.875Z" fill="#FBBC04"/>
<path d="M144.74 283.11C146.094 283.105 147.405 282.629 148.45 281.762C149.494 280.894 150.209 279.69 150.471 278.352C150.733 277.015 150.526 275.628 149.887 274.426C149.247 273.225 148.214 272.283 146.962 271.762C145.711 271.241 144.319 271.172 143.023 271.566C141.726 271.961 140.606 272.796 139.852 273.928C139.098 275.06 138.757 276.42 138.886 277.777C139.016 279.134 139.609 280.403 140.564 281.37C141.674 282.48 143.174 283.105 144.74 283.11Z" fill="#6D6D70"/>
<path d="M209.191 283.11C210.865 283.11 212.47 282.488 213.654 281.382C214.837 280.276 215.503 278.776 215.503 277.212C215.503 275.647 214.837 274.147 213.654 273.041C212.47 271.935 210.865 271.313 209.191 271.313C207.517 271.313 205.911 271.935 204.728 273.041C203.544 274.147 202.879 275.647 202.879 277.212C202.879 278.776 203.544 280.276 204.728 281.382C205.911 282.488 207.517 283.11 209.191 283.11Z" fill="#6D6D70"/>
<path d="M176.73 283.11C178.404 283.11 180.009 282.488 181.193 281.382C182.376 280.276 183.042 278.776 183.042 277.212C183.042 275.647 182.376 274.147 181.193 273.041C180.009 271.935 178.404 271.313 176.73 271.313C175.056 271.313 173.45 271.935 172.267 273.041C171.083 274.147 170.418 275.647 170.418 277.212C170.418 278.776 171.083 280.276 172.267 281.382C173.45 282.488 175.056 283.11 176.73 283.11Z" fill="#6D6D70"/>
<path d="M240.77 283.11C242.229 283.105 243.641 282.629 244.766 281.762C245.891 280.894 246.66 279.69 246.942 278.352C247.224 277.015 247.002 275.628 246.313 274.426C245.624 273.225 244.511 272.283 243.164 271.762C241.816 271.241 240.317 271.172 238.921 271.566C237.525 271.961 236.318 272.796 235.506 273.928C234.694 275.06 234.327 276.42 234.467 277.777C234.606 279.134 235.245 280.403 236.273 281.37C237.47 282.479 239.085 283.104 240.77 283.11Z" fill="#6D6D70"/>
<path d="M145.14 259.517C146.817 259.512 148.425 258.893 149.615 257.792C150.801 256.686 151.472 255.189 151.483 253.626C151.475 252.058 150.803 250.556 149.615 249.446C148.425 248.345 146.817 247.725 145.14 247.721C143.463 247.725 141.855 248.345 140.665 249.446C140.083 249.997 139.623 250.65 139.313 251.367C139.003 252.085 138.849 252.853 138.86 253.626C138.859 254.401 139.024 255.169 139.345 255.884C139.666 256.599 140.136 257.248 140.728 257.792C141.902 258.879 143.485 259.497 145.14 259.517Z" fill="#6D6D70"/>
<path d="M209.191 259.517C210.865 259.517 212.47 258.896 213.654 257.789C214.837 256.683 215.503 255.183 215.503 253.619C215.503 252.055 214.837 250.554 213.654 249.448C212.47 248.342 210.865 247.721 209.191 247.721C207.517 247.721 205.911 248.342 204.727 249.448C203.544 250.554 202.879 252.055 202.879 253.619C202.879 255.183 203.544 256.683 204.727 257.789C205.911 258.896 207.517 259.517 209.191 259.517Z" fill="#6D6D70"/>
<path d="M176.73 259.517C178.404 259.517 180.009 258.896 181.193 257.789C182.377 256.683 183.042 255.183 183.042 253.619C183.042 252.055 182.377 250.554 181.193 249.448C180.009 248.342 178.404 247.721 176.73 247.721C175.056 247.721 173.45 248.342 172.267 249.448C171.083 250.554 170.418 252.055 170.418 253.619C170.418 255.183 171.083 256.683 172.267 257.789C173.45 258.896 175.056 259.517 176.73 259.517Z" fill="#6D6D70"/>
<path d="M240.741 259.517C242.418 259.515 244.025 258.895 245.215 257.792C246.393 256.684 247.056 255.188 247.061 253.626C247.059 252.06 246.395 250.558 245.215 249.446C244.025 248.343 242.418 247.723 240.741 247.721C239.07 247.725 237.469 248.345 236.283 249.446C235.103 250.558 234.44 252.06 234.438 253.626C234.442 255.188 235.106 256.684 236.283 257.792C237.469 258.893 239.07 259.512 240.741 259.517Z" fill="#6D6D70"/>
<path d="M144.74 307.544C146.094 307.54 147.405 307.063 148.45 306.196C149.494 305.329 150.209 304.124 150.471 302.787C150.733 301.45 150.526 300.062 149.887 298.861C149.247 297.66 148.214 296.718 146.962 296.197C145.711 295.675 144.319 295.606 143.023 296.001C141.726 296.396 140.606 297.23 139.852 298.362C139.098 299.495 138.757 300.855 138.886 302.211C139.016 303.568 139.609 304.838 140.564 305.804C141.674 306.915 143.174 307.54 144.74 307.544Z" fill="#6D6D70"/>
<path d="M209.191 307.544C210.865 307.544 212.47 306.923 213.654 305.817C214.837 304.711 215.503 303.21 215.503 301.646C215.503 300.082 214.837 298.582 213.654 297.476C212.47 296.369 210.865 295.748 209.191 295.748C207.517 295.748 205.911 296.369 204.728 297.476C203.544 298.582 202.879 300.082 202.879 301.646C202.879 303.21 203.544 304.711 204.728 305.817C205.911 306.923 207.517 307.544 209.191 307.544Z" fill="#6D6D70"/>
<path d="M176.73 307.544C178.404 307.544 180.009 306.923 181.193 305.817C182.376 304.711 183.042 303.21 183.042 301.646C183.042 300.082 182.376 298.582 181.193 297.476C180.009 296.369 178.404 295.748 176.73 295.748C175.056 295.748 173.45 296.369 172.267 297.476C171.083 298.582 170.418 300.082 170.418 301.646C170.418 303.21 171.083 304.711 172.267 305.817C173.45 306.923 175.056 307.544 176.73 307.544Z" fill="#6D6D70"/>
<path d="M240.77 307.544C242.229 307.54 243.641 307.063 244.766 306.196C245.891 305.329 246.66 304.124 246.942 302.787C247.224 301.45 247.002 300.062 246.313 298.861C245.624 297.66 244.511 296.718 243.164 296.197C241.816 295.675 240.317 295.606 238.921 296.001C237.525 296.396 236.318 297.23 235.506 298.362C234.694 299.495 234.327 300.855 234.467 302.211C234.606 303.568 235.245 304.838 236.273 305.804C237.47 306.913 239.085 307.538 240.77 307.544Z" fill="#6D6D70"/>
<path d="M144.74 330.294C146.094 330.29 147.405 329.813 148.45 328.946C149.494 328.079 150.209 326.874 150.471 325.537C150.733 324.2 150.526 322.812 149.887 321.611C149.247 320.41 148.214 319.468 146.962 318.947C145.711 318.425 144.319 318.356 143.023 318.751C141.726 319.146 140.606 319.98 139.852 321.112C139.098 322.245 138.757 323.605 138.886 324.961C139.016 326.318 139.609 327.588 140.564 328.554C141.674 329.665 143.174 330.29 144.74 330.294Z" fill="#6D6D70"/>
<path d="M209.191 330.294C210.865 330.294 212.47 329.673 213.654 328.567C214.837 327.461 215.503 325.96 215.503 324.396C215.503 322.832 214.837 321.332 213.654 320.226C212.47 319.119 210.865 318.498 209.191 318.498C207.517 318.498 205.911 319.119 204.728 320.226C203.544 321.332 202.879 322.832 202.879 324.396C202.879 325.96 203.544 327.461 204.728 328.567C205.911 329.673 207.517 330.294 209.191 330.294Z" fill="#6D6D70"/>
<path d="M176.73 330.294C178.404 330.294 180.009 329.673 181.193 328.567C182.376 327.461 183.042 325.96 183.042 324.396C183.042 322.832 182.376 321.332 181.193 320.226C180.009 319.119 178.404 318.498 176.73 318.498C175.056 318.498 173.45 319.119 172.267 320.226C171.083 321.332 170.418 322.832 170.418 324.396C170.418 325.96 171.083 327.461 172.267 328.567C173.45 329.673 175.056 330.294 176.73 330.294Z" fill="#6D6D70"/>
<path d="M240.77 330.294C242.229 330.29 243.641 329.813 244.766 328.946C245.891 328.079 246.66 326.874 246.942 325.537C247.224 324.2 247.002 322.812 246.313 321.611C245.624 320.41 244.511 319.468 243.164 318.947C241.816 318.425 240.317 318.356 238.921 318.751C237.525 319.146 236.318 319.98 235.506 321.112C234.694 322.245 234.327 323.605 234.467 324.961C234.606 326.318 235.245 327.588 236.273 328.554C237.47 329.663 239.085 330.288 240.77 330.294Z" fill="#6D6D70"/>
<path d="M145.17 354.73C146.839 354.725 148.439 354.11 149.622 353.017C150.801 351.911 151.468 350.421 151.482 348.865C151.508 347.695 151.154 346.545 150.466 345.565C149.777 344.585 148.786 343.822 147.623 343.375C146.459 342.927 145.177 342.817 143.945 343.058C142.713 343.3 141.589 343.882 140.718 344.727C140.129 345.268 139.661 345.912 139.342 346.622C139.023 347.333 138.859 348.095 138.859 348.865C138.859 350.405 139.518 351.882 140.69 352.971C141.861 354.06 143.451 354.672 145.108 354.672" fill="#6D6D70"/>
<path d="M209.191 354.73C210.865 354.73 212.47 354.108 213.654 353.002C214.837 351.896 215.503 350.396 215.503 348.832C215.503 347.267 214.837 345.767 213.654 344.661C212.47 343.555 210.865 342.934 209.191 342.934C207.517 342.934 205.911 343.555 204.728 344.661C203.544 345.767 202.879 347.267 202.879 348.832C202.879 350.396 203.544 351.896 204.728 353.002C205.911 354.108 207.517 354.73 209.191 354.73Z" fill="#6D6D70"/>
<path d="M176.73 354.73C178.404 354.73 180.009 354.108 181.193 353.002C182.376 351.896 183.042 350.396 183.042 348.832C183.042 347.267 182.376 345.767 181.193 344.661C180.009 343.555 178.404 342.934 176.73 342.934C175.056 342.934 173.45 343.555 172.267 344.661C171.083 345.767 170.418 347.267 170.418 348.832C170.418 350.396 171.083 351.896 172.267 353.002C173.45 354.108 175.056 354.73 176.73 354.73Z" fill="#6D6D70"/>
<path d="M240.77 354.73C242.229 354.725 243.641 354.249 244.766 353.382C245.891 352.514 246.66 351.31 246.942 349.972C247.224 348.635 247.002 347.248 246.313 346.046C245.624 344.845 244.511 343.904 243.164 343.382C241.816 342.861 240.317 342.792 238.921 343.186C237.525 343.581 236.318 344.416 235.506 345.548C234.694 346.68 234.327 348.04 234.467 349.397C234.606 350.754 235.245 352.023 236.273 352.99C237.47 354.099 239.085 354.724 240.77 354.73Z" fill="#6D6D70"/>
<path d="M192.96 86.786C185.308 86.786 177.969 83.9453 172.558 78.8888C167.146 73.8323 164.106 66.9742 164.106 59.8232C164.106 52.6722 167.146 45.8141 172.558 40.7576C177.969 35.7011 185.308 32.8604 192.96 32.8604C200.613 32.8604 207.952 35.7011 213.363 40.7576C218.774 45.8141 221.814 52.6722 221.814 59.8232C221.814 66.9742 218.774 73.8323 213.363 78.8888C207.952 83.9453 200.613 86.786 192.96 86.786Z" fill="#FBBC04"/>
</svg>
