<svg width="380" height="1022" viewBox="0 0 380 1022" fill="none" xmlns="http://www.w3.org/2000/svg">
<path d="M256.981 64.4705C256.981 28.8644 228.318 0 192.961 0C157.604 0 128.941 28.8644 128.941 64.4705C128.941 100.077 157.604 128.941 192.961 128.941C228.318 128.941 256.981 100.077 256.981 64.4705Z" fill="#EA4335"/>
<path d="M385.921 0H256.98V128.941H385.921V0Z" fill="#4285F4"/>
<path d="M128.941 128.941H0C0 112.008 3.33514 95.2413 9.81503 79.5974C16.2949 63.9536 25.7927 49.7392 37.766 37.7659C49.7392 25.7927 63.9535 16.2949 79.5973 9.81506C95.2412 3.33516 112.008 0 128.941 0V128.941Z" fill="#0F9D58"/>
<path d="M128.941 256.981C112.008 256.981 95.2412 253.669 79.5973 247.234C63.9535 240.8 49.7392 231.368 37.766 219.479C25.7927 207.589 16.2949 193.474 9.81503 177.94C3.33514 162.405 0 145.756 0 128.941H128.941V256.981Z" fill="#EA4335"/>
<path d="M128.941 201.076C109.57 201.076 90.9933 193.476 77.2963 179.948C63.5993 166.421 55.9043 148.073 55.9043 128.941H128.941V201.076Z" fill="#FBBC04"/>
<path d="M256.981 128.941H128.941V256.981H256.981V128.941Z" fill="#4285F4"/>
<path d="M220.913 165.009H165.009V219.11H220.913V165.009Z" fill="#0F9D58"/>
<path d="M385.921 128.941H256.98V256.981H385.921V128.941Z" fill="#0F9D58"/>
<path d="M385.921 128.941V256.981H256.98C256.98 240.161 260.316 223.506 266.797 207.968C273.277 192.43 282.776 178.312 294.75 166.422C306.724 154.531 320.939 145.101 336.583 138.67C352.226 132.239 368.992 128.933 385.921 128.941Z" fill="#EA4335"/>
<path d="M256.981 256.98H128.941V384.118H256.981V256.98Z" fill="#FBBC04"/>
<path d="M385.921 256.98H256.98V384.118H385.921V256.98Z" fill="#6D6D70"/>
<path d="M128.941 320.549C128.941 285.441 100.077 256.98 64.4705 256.98C28.8644 256.98 0 285.441 0 320.549C0 355.657 28.8644 384.118 64.4705 384.118C100.077 384.118 128.941 355.657 128.941 320.549Z" fill="#4285F4"/>
<path d="M64.4777 348.952C60.629 348.954 56.8177 348.22 53.2615 346.793C49.7052 345.367 46.4736 343.274 43.7515 340.636C41.0294 337.997 38.8699 334.865 37.3966 331.417C35.9233 327.969 35.165 324.273 35.165 320.541C35.165 316.809 35.9234 313.115 37.3969 309.667C38.8704 306.22 41.03 303.089 43.7524 300.452C46.4747 297.814 49.7064 295.723 53.2626 294.298C56.8188 292.873 60.6298 292.142 64.4777 292.146C68.3243 292.144 72.1336 292.877 75.688 294.303C79.2424 295.729 82.4722 297.82 85.1928 300.457C87.9135 303.094 90.0717 306.225 91.5442 309.671C93.0167 313.117 93.7746 316.811 93.7746 320.541C93.7746 328.076 90.6881 335.302 85.1938 340.63C79.6996 345.958 72.2477 348.952 64.4777 348.952Z" fill="#EA4335"/>
<path d="M256.98 256.98H385.921V385.921C351.741 385.921 318.96 372.343 294.79 348.174C270.621 324.004 257.042 291.223 257.042 257.042L256.98 256.98Z" fill="#4285F4"/>
<path d="M385.921 256.981H321.901C321.907 248.566 323.568 240.235 326.789 232.463C330.01 224.692 334.727 217.632 340.672 211.687C346.617 205.742 353.673 201.028 361.437 197.815C369.201 194.602 377.521 192.953 385.921 192.961V256.981Z" fill="#6D6D70"/>
<path d="M256.981 829.471C256.981 793.864 228.318 765 192.961 765C157.604 765 128.941 793.864 128.941 829.471C128.941 865.077 157.604 893.941 192.961 893.941C228.318 893.941 256.981 865.077 256.981 829.471Z" fill="#EA4335"/>
<path d="M192.96 857.873C185.308 857.873 177.969 854.833 172.558 849.422C167.146 844.011 164.106 836.672 164.106 829.019C164.106 821.366 167.146 814.027 172.558 808.616C177.969 803.205 185.308 800.165 192.96 800.165C200.613 800.165 207.952 803.205 213.363 808.616C218.774 814.027 221.814 821.366 221.814 829.019C221.814 836.672 218.774 844.011 213.363 849.422C207.952 854.833 200.613 857.873 192.96 857.873Z" fill="#0F9D58"/>
<path d="M385.921 765H256.98V893.941H385.921V765Z" fill="#0F9D58"/>
<path d="M128.941 893.941H0C0 877.008 3.33514 860.241 9.81503 844.597C16.2949 828.954 25.7927 814.739 37.766 802.766C49.7392 790.793 63.9535 781.295 79.5973 774.815C95.2412 768.335 112.008 765 128.941 765V893.941Z" fill="#0F9D58"/>
<path d="M128.941 1021.98C112.008 1021.98 95.2412 1018.67 79.5973 1012.23C63.9535 1005.8 49.7392 996.368 37.766 984.479C25.7927 972.589 16.2949 958.474 9.81503 942.94C3.33514 927.405 0 910.756 0 893.941H128.941V1021.98Z" fill="#4285F4"/>
<path d="M128.941 966.076C109.57 966.076 90.9933 958.476 77.2963 944.948C63.5993 931.421 55.9043 913.073 55.9043 893.941H128.941V966.076Z" fill="#EA4335"/>
<path d="M256.981 893.941H128.941V1021.98H256.981V893.941Z" fill="#FBBC04"/>
<path d="M220.913 930.009H165.009V984.11H220.913V930.009Z" fill="#0F9D58"/>
<path d="M385.921 893.941H256.98V1021.98H385.921V893.941Z" fill="#4285F4"/>
<path d="M385.921 893.941V1021.98H256.98C256.98 1005.16 260.316 988.506 266.797 972.968C273.277 957.43 282.776 943.312 294.75 931.422C306.724 919.531 320.939 910.101 336.583 903.67C352.226 897.239 368.992 893.933 385.921 893.941Z" fill="#EA4335"/>
<path d="M385.921 1021.98H321.901C321.907 1013.57 323.568 1005.24 326.789 997.463C330.01 989.692 334.727 982.632 340.672 976.687C346.617 970.742 353.673 966.028 361.437 962.815C369.201 959.602 377.521 957.953 385.921 957.961V1021.98Z" fill="#6D6D70"/>
<path d="M385.921 321C377.515 321.008 369.191 319.358 361.423 316.144C353.655 312.931 346.596 308.216 340.65 302.27C334.705 296.324 329.988 289.264 326.771 281.493C323.554 273.722 321.899 265.392 321.901 256.98H385.859L385.921 321Z" fill="#FBBC04"/>
<path d="M128.941 513.059C94.7437 513.059 61.9471 499.474 37.766 475.293C13.5848 451.112 0 418.315 0 384.118H128.941V513.059Z" fill="#0F9D58"/>
<path d="M256.981 384.118H128.941V513.059H256.981V384.118Z" fill="#4285F4"/>
<path d="M256.981 513.059H128.941L256.981 384.118V513.059Z" fill="#4285F4"/>
<path d="M256.98 385.921C273.906 385.913 290.668 389.195 306.309 395.58C321.949 401.965 336.162 411.328 348.135 423.134C360.109 434.94 369.609 448.958 376.092 464.388C382.575 479.817 385.915 496.355 385.921 513.059H256.98V385.921Z" fill="#EA4335"/>
<path d="M128.941 641.099C94.7437 641.099 61.9471 654.683 37.766 678.865C13.5848 703.046 0 735.842 0 770.04H128.941V641.099Z" fill="#EA4335"/>
<path d="M128.941 641.099V770.04H256.981C256.981 753.103 253.669 736.332 247.233 720.685C240.798 705.038 231.366 690.822 219.476 678.848C207.586 666.874 193.471 657.378 177.936 650.9C162.402 644.423 145.754 641.093 128.941 641.099Z" fill="#FBBC04"/>
<path d="M128.941 696.102C109.332 696.102 90.525 703.891 76.6589 717.758C62.7928 731.624 55.0029 750.43 55.0029 770.04H128.941V696.102Z" fill="#0F9D58"/>
<path d="M128.941 696.102V770.04H202.88C202.88 750.43 195.09 731.624 181.223 717.758C167.357 703.891 148.551 696.102 128.941 696.102Z" fill="#6D6D70"/>
<path d="M256.98 641.099C256.98 675.296 270.565 708.093 294.746 732.274C318.928 756.455 351.724 770.04 385.921 770.04C385.921 735.842 372.337 703.046 348.156 678.865C323.974 654.683 291.178 641.099 256.98 641.099Z" fill="#4285F4"/>
<path d="M128.941 513.059C128.941 529.877 132.254 546.53 138.689 562.068C145.124 577.605 154.556 591.722 166.446 603.612C178.336 615.503 192.451 624.933 207.986 631.365C223.52 637.797 240.169 641.104 256.981 641.098C256.981 624.28 253.669 607.626 247.233 592.089C240.798 576.551 231.366 562.434 219.476 550.544C207.586 538.654 193.471 529.224 177.936 522.792C162.402 516.36 145.754 513.053 128.941 513.059Z" fill="#EA4335"/>
<path d="M385.875 513.059C351.686 513.071 318.901 526.566 294.73 550.577C270.559 574.587 256.98 607.148 256.98 641.098C291.178 641.098 323.974 627.608 348.156 603.596C372.337 579.584 385.921 547.017 385.921 513.059H385.875Z" fill="#FBBC04"/>
<path d="M144.74 302.966C146.094 302.962 147.405 302.452 148.45 301.524C149.494 300.596 150.209 299.306 150.471 297.875C150.733 296.444 150.526 294.96 149.887 293.674C149.247 292.388 148.214 291.381 146.962 290.823C145.711 290.265 144.319 290.191 143.023 290.613C141.726 291.036 140.606 291.929 139.852 293.141C139.098 294.352 138.757 295.808 138.886 297.259C139.016 298.711 139.609 300.07 140.564 301.104C141.674 302.293 143.174 302.962 144.74 302.966Z" fill="#6D6D70"/>
<path d="M209.191 302.966C210.865 302.966 212.47 302.301 213.654 301.118C214.837 299.934 215.503 298.329 215.503 296.655C215.503 294.981 214.837 293.375 213.654 292.191C212.47 291.008 210.865 290.343 209.191 290.343C207.517 290.343 205.911 291.008 204.728 292.191C203.544 293.375 202.879 294.981 202.879 296.655C202.879 298.329 203.544 299.934 204.728 301.118C205.911 302.301 207.517 302.966 209.191 302.966Z" fill="#6D6D70"/>
<path d="M176.73 302.966C178.404 302.966 180.009 302.301 181.193 301.118C182.376 299.934 183.042 298.329 183.042 296.655C183.042 294.981 182.376 293.375 181.193 292.191C180.009 291.008 178.404 290.343 176.73 290.343C175.056 290.343 173.45 291.008 172.267 292.191C171.083 293.375 170.418 294.981 170.418 296.655C170.418 298.329 171.083 299.934 172.267 301.118C173.45 302.301 175.056 302.966 176.73 302.966Z" fill="#6D6D70"/>
<path d="M240.771 302.966C242.23 302.962 243.642 302.452 244.767 301.524C245.892 300.596 246.661 299.306 246.943 297.875C247.225 296.444 247.003 294.96 246.314 293.674C245.625 292.388 244.512 291.381 243.165 290.823C241.817 290.265 240.318 290.191 238.922 290.613C237.526 291.036 236.319 291.929 235.507 293.141C234.695 294.352 234.328 295.808 234.468 297.259C234.607 298.711 235.246 300.07 236.274 301.104C237.471 302.291 239.086 302.96 240.771 302.966Z" fill="#6D6D70"/>
<path d="M145.14 277.719C146.817 277.714 148.425 277.051 149.615 275.873C150.801 274.69 151.472 273.088 151.483 271.415C151.475 269.737 150.803 268.13 149.615 266.942C148.425 265.764 146.817 265.101 145.14 265.096C143.463 265.101 141.855 265.764 140.665 266.942C140.083 267.531 139.623 268.23 139.313 268.998C139.003 269.766 138.849 270.588 138.86 271.415C138.859 272.245 139.024 273.066 139.345 273.831C139.666 274.597 140.136 275.291 140.728 275.873C141.902 277.036 143.485 277.698 145.14 277.719Z" fill="#6D6D70"/>
<path d="M209.191 277.719C210.865 277.719 212.47 277.054 213.654 275.871C214.837 274.687 215.503 273.081 215.503 271.408C215.503 269.734 214.837 268.128 213.654 266.944C212.47 265.761 210.865 265.096 209.191 265.096C207.517 265.096 205.911 265.761 204.727 266.944C203.544 268.128 202.879 269.734 202.879 271.408C202.879 273.081 203.544 274.687 204.727 275.871C205.911 277.054 207.517 277.719 209.191 277.719Z" fill="#6D6D70"/>
<path d="M176.73 277.719C178.404 277.719 180.009 277.054 181.193 275.871C182.377 274.687 183.042 273.081 183.042 271.408C183.042 269.734 182.377 268.128 181.193 266.944C180.009 265.761 178.404 265.096 176.73 265.096C175.056 265.096 173.45 265.761 172.267 266.944C171.083 268.128 170.418 269.734 170.418 271.408C170.418 273.081 171.083 274.687 172.267 275.871C173.45 277.054 175.056 277.719 176.73 277.719Z" fill="#6D6D70"/>
<path d="M240.742 277.719C242.419 277.717 244.026 277.054 245.216 275.873C246.394 274.688 247.057 273.086 247.062 271.415C247.06 269.739 246.396 268.132 245.216 266.942C244.026 265.761 242.419 265.098 240.742 265.096C239.071 265.101 237.47 265.764 236.284 266.942C235.104 268.132 234.441 269.739 234.438 271.415C234.443 273.086 235.107 274.688 236.284 275.873C237.47 277.051 239.071 277.714 240.742 277.719Z" fill="#6D6D70"/>
<path d="M144.74 329.115C146.094 329.11 147.405 328.6 148.45 327.672C149.494 326.744 150.209 325.455 150.471 324.024C150.733 322.593 150.526 321.108 149.887 319.822C149.247 318.537 148.214 317.529 146.962 316.971C145.711 316.413 144.319 316.339 143.023 316.762C141.726 317.184 140.606 318.077 139.852 319.289C139.098 320.501 138.757 321.956 138.886 323.408C139.016 324.86 139.609 326.218 140.564 327.253C141.674 328.441 143.174 329.11 144.74 329.115Z" fill="#6D6D70"/>
<path d="M209.191 329.115C210.865 329.115 212.47 328.45 213.654 327.266C214.837 326.082 215.503 324.477 215.503 322.803C215.503 321.129 214.837 319.524 213.654 318.34C212.47 317.156 210.865 316.491 209.191 316.491C207.517 316.491 205.911 317.156 204.728 318.34C203.544 319.524 202.879 321.129 202.879 322.803C202.879 324.477 203.544 326.082 204.728 327.266C205.911 328.45 207.517 329.115 209.191 329.115Z" fill="#6D6D70"/>
<path d="M176.73 329.115C178.404 329.115 180.009 328.45 181.193 327.266C182.376 326.082 183.042 324.477 183.042 322.803C183.042 321.129 182.376 319.524 181.193 318.34C180.009 317.156 178.404 316.491 176.73 316.491C175.056 316.491 173.45 317.156 172.267 318.34C171.083 319.524 170.418 321.129 170.418 322.803C170.418 324.477 171.083 326.082 172.267 327.266C173.45 328.45 175.056 329.115 176.73 329.115Z" fill="#6D6D70"/>
<path d="M240.771 329.115C242.23 329.11 243.642 328.6 244.767 327.672C245.892 326.744 246.661 325.455 246.943 324.024C247.225 322.593 247.003 321.108 246.314 319.822C245.625 318.537 244.512 317.529 243.165 316.971C241.817 316.413 240.318 316.339 238.922 316.762C237.526 317.184 236.319 318.077 235.507 319.289C234.695 320.501 234.328 321.956 234.468 323.408C234.607 324.86 235.246 326.218 236.274 327.253C237.471 328.44 239.086 329.108 240.771 329.115Z" fill="#6D6D70"/>
<path d="M144.74 353.461C146.094 353.456 147.405 352.946 148.45 352.018C149.494 351.09 150.209 349.8 150.471 348.369C150.733 346.938 150.526 345.454 149.887 344.168C149.247 342.882 148.214 341.875 146.962 341.317C145.711 340.759 144.319 340.685 143.023 341.108C141.726 341.53 140.606 342.423 139.852 343.635C139.098 344.846 138.757 346.302 138.886 347.754C139.016 349.205 139.609 350.564 140.564 351.599C141.674 352.787 143.174 353.456 144.74 353.461Z" fill="#6D6D70"/>
<path d="M209.191 353.461C210.865 353.461 212.47 352.796 213.654 351.612C214.837 350.428 215.503 348.823 215.503 347.149C215.503 345.475 214.837 343.869 213.654 342.686C212.47 341.502 210.865 340.837 209.191 340.837C207.517 340.837 205.911 341.502 204.728 342.686C203.544 343.869 202.879 345.475 202.879 347.149C202.879 348.823 203.544 350.428 204.728 351.612C205.911 352.796 207.517 353.461 209.191 353.461Z" fill="#6D6D70"/>
<path d="M176.73 353.461C178.404 353.461 180.009 352.796 181.193 351.612C182.376 350.428 183.042 348.823 183.042 347.149C183.042 345.475 182.376 343.869 181.193 342.686C180.009 341.502 178.404 340.837 176.73 340.837C175.056 340.837 173.45 341.502 172.267 342.686C171.083 343.869 170.418 345.475 170.418 347.149C170.418 348.823 171.083 350.428 172.267 351.612C173.45 352.796 175.056 353.461 176.73 353.461Z" fill="#6D6D70"/>
<path d="M240.771 353.461C242.23 353.456 243.642 352.946 244.767 352.018C245.892 351.09 246.661 349.8 246.943 348.369C247.225 346.938 247.003 345.454 246.314 344.168C245.625 342.882 244.512 341.875 243.165 341.317C241.817 340.759 240.318 340.685 238.922 341.108C237.526 341.53 236.319 342.423 235.507 343.635C234.695 344.846 234.328 346.302 234.468 347.754C234.607 349.205 235.246 350.564 236.274 351.599C237.471 352.785 239.086 353.454 240.771 353.461Z" fill="#6D6D70"/>
<path d="M145.17 379.61C146.839 379.605 148.439 378.946 149.623 377.777C150.801 376.593 151.468 374.999 151.482 373.333C151.508 372.082 151.154 370.851 150.466 369.802C149.777 368.754 148.786 367.937 147.623 367.458C146.459 366.98 145.178 366.862 143.945 367.12C142.713 367.378 141.589 368.001 140.718 368.906C140.129 369.484 139.661 370.174 139.342 370.934C139.023 371.694 138.859 372.51 138.859 373.333C138.859 374.982 139.518 376.562 140.69 377.728C141.861 378.893 143.451 379.548 145.108 379.548" fill="#6D6D70"/>
<path d="M209.191 379.61C210.865 379.61 212.47 378.945 213.654 377.761C214.837 376.578 215.503 374.972 215.503 373.298C215.503 371.624 214.837 370.019 213.654 368.835C212.47 367.651 210.865 366.986 209.191 366.986C207.517 366.986 205.911 367.651 204.728 368.835C203.544 370.019 202.879 371.624 202.879 373.298C202.879 374.972 203.544 376.578 204.728 377.761C205.911 378.945 207.517 379.61 209.191 379.61Z" fill="#6D6D70"/>
<path d="M176.73 379.61C178.404 379.61 180.009 378.945 181.193 377.761C182.376 376.578 183.042 374.972 183.042 373.298C183.042 371.624 182.376 370.019 181.193 368.835C180.009 367.651 178.404 366.986 176.73 366.986C175.056 366.986 173.45 367.651 172.267 368.835C171.083 370.019 170.418 371.624 170.418 373.298C170.418 374.972 171.083 376.578 172.267 377.761C173.45 378.945 175.056 379.61 176.73 379.61Z" fill="#6D6D70"/>
<path d="M240.771 379.61C242.23 379.605 243.642 379.095 244.767 378.167C245.892 377.239 246.661 375.95 246.943 374.519C247.225 373.088 247.003 371.603 246.314 370.318C245.625 369.032 244.512 368.024 243.165 367.466C241.817 366.908 240.318 366.834 238.922 367.257C237.526 367.679 236.319 368.572 235.507 369.784C234.695 370.996 234.328 372.451 234.468 373.903C234.607 375.355 235.246 376.713 236.274 377.748C237.471 378.935 239.086 379.603 240.771 379.61Z" fill="#6D6D70"/>
<path d="M192.96 92.8729C185.308 92.8729 177.969 89.833 172.558 84.4218C167.146 79.0106 164.106 71.6715 164.106 64.019C164.106 56.3664 167.146 49.0273 172.558 43.6162C177.969 38.205 185.308 35.165 192.96 35.165C200.613 35.165 207.952 38.205 213.363 43.6162C218.774 49.0273 221.814 56.3664 221.814 64.019C221.814 71.6715 218.774 79.0106 213.363 84.4218C207.952 89.833 200.613 92.8729 192.96 92.8729Z" fill="#FBBC04"/>
</svg>
